<svg xmlns="http://www.w3.org/2000/svg" enable-background="new 0 0 512 512" viewBox="0 0 512 512" id="goleft"><linearGradient id="a" x1="27.143" x2="484.857" y1="484.857" y2="27.143" gradientUnits="userSpaceOnUse"><stop offset="0" stop-color="#e25b61"></stop><stop offset=".527" stop-color="#b678e6"></stop><stop offset="1" stop-color="#5ebce5"></stop></linearGradient><path fill="url(#a)" d="M458,16H54c-20.953,0-38,17.047-38,38v404c0,20.953,17.047,38,38,38h404c20.953,0,38-17.047,38-38V54
	C496,33.047,478.953,16,458,16z M480,458c0,12.131-9.869,22-22,22H54c-12.131,0-22-9.869-22-22V54c0-12.131,9.869-22,22-22h404
	c12.131,0,22,9.869,22,22V458z M420,136H201.443l6.448-38.685c0.527-3.166-0.889-6.341-3.596-8.064
	c-2.708-1.722-6.183-1.662-8.828,0.157l-128,88C65.297,178.9,64,181.366,64,184s1.297,5.1,3.468,6.592l128,88
	c2.646,1.819,6.12,1.879,8.828,0.157c2.707-1.724,4.123-4.898,3.596-8.064L201.443,232H352v166c0,9.925,8.075,18,18,18h60
	c9.925,0,18-8.075,18-18V164C448,148.561,435.439,136,420,136z M432,398c0,1.103-0.897,2-2,2h-60c-1.103,0-2-0.897-2-2V224
	c0-4.418-3.582-8-8-8H192c-2.352,0-4.584,1.035-6.104,2.829c-1.52,1.794-2.173,4.167-1.787,6.486l4.904,29.422L86.121,184
	l102.892-70.738l-4.904,29.422c-0.386,2.32,0.268,4.692,1.787,6.486c1.521,1.794,3.753,2.829,6.104,2.829h228
	c6.617,0,12,5.383,12,12V398z"></path></svg>