<svg xmlns="http://www.w3.org/2000/svg" width="26" height="26" fill="none" viewBox="0 0 128 128" id="moon"><path fill="url(#paint0_linear)" d="M90.668 10.668H37.3346C22.607 10.668 10.668 22.607 10.668 37.3346V90.668C10.668 105.396 22.607 117.335 37.3346 117.335H90.668C105.396 117.335 117.335 105.396 117.335 90.668V37.3346C117.335 22.607 105.396 10.668 90.668 10.668Z"></path><g filter="url(#filter0_d)" opacity=".9"><path fill="#fff" d="M63.982 40C61.9853 43.6621 60.9417 47.7676 60.9474 51.9387C60.7933 58.1557 63.1134 64.1797 67.398 68.6873C71.6825 73.1948 77.5812 75.8173 83.798 75.9787C84.3314 75.9787 84.8247 75.9333 85.334 75.8987C83.429 79.515 80.5816 82.549 77.0932 84.6793C73.6048 86.8096 69.6052 87.957 65.518 88C59.3012 87.8387 53.4025 85.2162 49.118 80.7086C44.8334 76.201 42.5133 70.1771 42.6674 63.96C42.5363 58.0124 44.6614 52.2355 48.6155 47.7907C52.5696 43.3459 58.0596 40.5625 63.982 40V40Z"></path></g><defs><linearGradient id="paint0_linear" x1="22.959" x2="108.319" y1="22.959" y2="108.319" gradientUnits="userSpaceOnUse"><stop stop-color="#64688C"></stop><stop offset=".069" stop-color="#5F6286"></stop><stop offset=".446" stop-color="#454668"></stop><stop offset=".77" stop-color="#353556"></stop><stop offset="1" stop-color="#2F2F4F"></stop></linearGradient><filter id="filter0_d" width="58.674" height="64" x="34.66" y="34" color-interpolation-filters="sRGB" filterUnits="userSpaceOnUse"><feFlood flood-opacity="0" result="BackgroundImageFix"></feFlood><feColorMatrix in="SourceAlpha" values="0 0 0 0 0 0 0 0 0 0 0 0 0 0 0 0 0 0 127 0"></feColorMatrix><feOffset dy="2"></feOffset><feGaussianBlur stdDeviation="4"></feGaussianBlur><feColorMatrix values="0 0 0 0 0 0 0 0 0 0 0 0 0 0 0 0 0 0 0.25 0"></feColorMatrix><feBlend in2="BackgroundImageFix" result="effect1_dropShadow"></feBlend><feBlend in="SourceGraphic" in2="effect1_dropShadow" result="shape"></feBlend></filter></defs></svg>